HIERARCHY
ROOT Hips
{
 OFFSET 0.000000 0.000000 0.000000
 CHANNELS 6 Xposition Yposition Zposition Yrotation Xrotation Zrotation
 JOINT Chest
 {
  OFFSET 0.000000 9.581000 -0.001100
  CHANNELS 3 Yrotation Xrotation Zrotation
  JOINT Chest2
  {
   OFFSET 0.000000 9.561100 0.002200
   CHANNELS 3 Yrotation Xrotation Zrotation
   JOINT Chest3
   {
    OFFSET 0.000000 9.521100 0.000000
    CHANNELS 3 Yrotation Xrotation Zrotation
    JOINT Chest4
    {
     OFFSET 0.000000 9.511400 0.000000
     CHANNELS 3 Yrotation Xrotation Zrotation
     JOINT Neck
     {
      OFFSET 0.000000 14.375100 0.000000
      CHANNELS 3 Yrotation Xrotation Zrotation
      JOINT Head
      {
       OFFSET 0.000000 8.901200 0.004600
       CHANNELS 3 Yrotation Xrotation Zrotation
       End Site
       {
        OFFSET 0.000000 16.962200 0.002400
       }
      }
     }
     JOINT RightCollar
     {
      OFFSET -2.920100 9.518800 0.000000
      CHANNELS 3 Yrotation Xrotation Zrotation
      JOINT RightShoulder
      {
       OFFSET -13.664500 0.000000 0.000000
       CHANNELS 3 Yrotation Xrotation Zrotation
       JOINT RightElbow
       {
        OFFSET 0.000000 -29.999200 0.000000
        CHANNELS 3 Yrotation Xrotation Zrotation
        JOINT RightWrist
        {
         OFFSET 0.000000 -24.253600 0.000000
         CHANNELS 3 Yrotation Xrotation Zrotation
         End Site
         {
          OFFSET 0.000000 -17.918900 0.000000
         }
        }
       }
      }
     }
     JOINT LeftCollar
     {
      OFFSET 2.920100 9.518800 0.000000
      CHANNELS 3 Yrotation Xrotation Zrotation
      JOINT LeftShoulder
      {
       OFFSET 13.664500 0.000000 0.000000
       CHANNELS 3 Yrotation Xrotation Zrotation
       JOINT LeftElbow
       {
        OFFSET 0.000000 -29.999200 0.000000
        CHANNELS 3 Yrotation Xrotation Zrotation
        JOINT LeftWrist
        {
         OFFSET 0.000000 -24.253600 0.000000
         CHANNELS 3 Yrotation Xrotation Zrotation
         End Site
         {
          OFFSET 0.000000 -17.918900 0.000000
         }
        }
       }
      }
     }
    }
   }
  }
 }
 JOINT RightHip
 {
  OFFSET -7.797300 0.005300 0.000500
  CHANNELS 3 Yrotation Xrotation Zrotation
  JOINT RightKnee
  {
   OFFSET 0.000000 -40.663400 -0.000500
   CHANNELS 3 Yrotation Xrotation Zrotation
   JOINT RightAnkle
   {
    OFFSET 0.000000 -39.523700 -0.000900
    CHANNELS 3 Yrotation Xrotation Zrotation
    JOINT RightToe
    {
     OFFSET 0.000000 -6.418000 14.485300
     CHANNELS 3 Yrotation Xrotation Zrotation
     End Site
     {
      OFFSET 0.000000 -1.465200 6.326400
     }
    }
   }
  }
 }
 JOINT LeftHip
 {
  OFFSET 7.797300 0.005300 0.000500
  CHANNELS 3 Yrotation Xrotation Zrotation
  JOINT LeftKnee
  {
   OFFSET 0.000000 -40.663400 -0.000500
   CHANNELS 3 Yrotation Xrotation Zrotation
   JOINT LeftAnkle
   {
    OFFSET 0.000000 -39.523700 -0.000900
    CHANNELS 3 Yrotation Xrotation Zrotation
    JOINT LeftToe
    {
     OFFSET 0.000000 -6.418000 14.485300
     CHANNELS 3 Yrotation Xrotation Zrotation
     End Site
     {
      OFFSET 0.000000 -1.465200 6.326400
     }
    }
   }
  }
 }
}
MOTION
Frames: 11
Frame Time: 0.008333
0.000000 86.422400 0.000000 0.000000 -5.767877 0.000000 0.000000 11.653817 0.000000 0.000000 -5.885947 0.000000 0.000000 -0.000000 0.000000 0.000000 -0.000000 0.000000 0.000000 12.528835 0.000000 0.000000 0.711642 0.000000 0.000000 -0.000000 0.000000 0.000000 0.000000 -90.000000 0.000000 -2.309062 0.000000 0.000000 2.309062 0.000000 0.000000 -0.000000 0.000000 0.000000 -0.000000 90.000000 0.000000 -2.309062 0.000000 0.000000 2.309062 0.000000 0.000000 8.520406 0.000000 0.000000 1.905762 0.000000 -0.000000 -4.658285 0.000000 0.000000 -0.000000 0.000000 0.000000 8.520406 0.000000 0.000000 1.905762 0.000000 -0.000000 -4.658285 0.000000 0.000000 -0.000000 0.000000
-13.365868 126.909458 32.805774 -160.666111 -48.837472 -2.799386 -4.383966 25.724873 -1.812860 -0.651794 4.261911 -0.156444 -1.044367 6.788598 -0.273398 -3.478544 21.188927 -1.324890 -6.006429 12.449372 -8.255199 -4.662354 -12.446615 -7.732992 1.831564 4.295830 1.500788 5.508003 -11.711316 -6.821054 -116.286686 -68.840595 162.362643 8.311819 11.816686 -19.399584 -9.844288 0.130547 -2.821682 -11.294764 -17.067711 12.325093 55.935292 -58.289777 -102.025263 3.839505 -13.471699 17.594291 -6.541708 -24.170093 -10.927888 -10.641624 78.641141 -11.994454 10.106969 -15.097885 3.764627 -0.000731 -0.000176 -0.000324 4.471574 4.894714 -1.845278 129.017776 65.034337 147.369393 10.786332 9.519616 2.978850 0.002398 0.001354 0.001062
-13.366297 126.910106 32.806192 -160.648210 -48.846410 -2.808683 -4.400156 25.722316 -1.817204 -0.652999 4.260316 -0.156191 -1.044294 6.798005 -0.274933 -3.496788 21.174768 -1.319339 -5.939177 12.546132 -8.185570 -4.610339 -12.342208 -7.654442 1.868977 4.268607 1.492687 5.512165 -11.675647 -6.828963 -116.413190 -68.787935 162.542023 8.303830 11.877792 -19.457690 -9.829917 0.118313 -2.849624 -11.323234 -17.038834 12.349680 55.971946 -58.310409 -102.072514 3.732992 -13.690999 17.726761 -6.530468 -24.155750 -10.935639 -10.668661 78.639433 -12.009306 10.095679 -15.105093 3.765392 0.000073 -0.002205 0.000032 4.465920 4.906937 -1.844177 129.011513 65.038257 147.365042 10.742400 9.456630 3.114342 0.006375 -0.011796 0.002824
-13.365829 126.910148 32.807048 -160.644391 -48.851373 -2.811130 -4.402037 25.717315 -1.818105 -0.654223 4.261209 -0.155035 -1.047043 6.790294 -0.273099 -3.503870 21.170721 -1.318844 -5.879154 12.658563 -8.103680 -4.566637 -12.226346 -7.561327 1.886996 4.267584 1.485545 5.526615 -11.663492 -6.832991 -116.459571 -68.761529 162.601873 8.358060 11.876619 -19.479606 -9.815378 0.080121 -2.885654 -11.356603 -16.981894 12.376524 55.992386 -58.320684 -102.112345 3.632611 -13.902730 17.856137 -6.525550 -24.148275 -10.935802 -10.665044 78.638317 -12.003217 10.085175 -15.111125 3.764530 -0.000747 -0.003010 -0.000331 4.470099 4.911086 -1.837467 129.013773 65.040964 147.363981 10.734919 9.430597 3.172172 0.004895 -0.012951 0.002168
-13.364700 126.910321 32.807713 -160.644291 -48.857592 -2.814222 -4.396019 25.714608 -1.815676 -0.658085 4.267661 -0.152567 -1.047969 6.779377 -0.271941 -3.494211 21.153118 -1.319538 -5.832244 12.795519 -8.009759 -4.531159 -12.099303 -7.454821 1.888777 4.284664 1.487679 5.563510 -11.667529 -6.834018 -116.497338 -68.747398 162.631447 8.412330 11.881149 -19.513766 -9.819397 0.084329 -2.906268 -11.386086 -16.961973 12.395983 55.998762 -58.320002 -102.136586 3.541616 -14.097447 17.975391 -6.513877 -24.138668 -10.930515 -10.666973 78.636902 -12.002527 10.074293 -15.113160 3.770447 -0.001705 -0.003801 -0.000755 4.474682 4.913777 -1.829139 129.017320 65.039288 147.367557 10.742480 9.430133 3.171026 0.004682 -0.008504 0.002074
-13.364240 126.910696 32.808445 -160.647473 -48.865803 -2.810037 -4.386281 25.713264 -1.817939 -0.660885 4.266975 -0.152853 -1.037138 6.768943 -0.274089 -3.489946 21.161674 -1.319955 -5.788415 12.927881 -7.902063 -4.502605 -11.960057 -7.336344 1.891898 4.279161 1.501354 5.625124 -11.683806 -6.832164 -116.516148 -68.752489 162.606255 8.467319 11.880204 -19.550903 -9.830974 0.074544 -2.915542 -11.414012 -16.947814 12.413613 55.991293 -58.314110 -102.125988 3.459573 -14.276176 18.068354 -6.488621 -24.125263 -10.925032 -10.717151 78.632478 -12.050984 10.057706 -15.115576 3.785788 -0.002537 -0.004333 -0.001124 4.479631 4.918124 -1.826393 129.007818 65.038453 147.355688 10.748389 9.438369 3.176033 0.003883 -0.008168 0.001720
-13.363608 126.910874 32.809324 -160.652348 -48.872453 -2.804276 -4.377076 25.712539 -1.820733 -0.656300 4.263958 -0.152535 -1.044038 6.776570 -0.271969 -3.482815 21.158407 -1.324028 -5.739143 13.064628 -7.798367 -4.479718 -11.808043 -7.207559 1.907007 4.261050 1.509154 5.656623 -11.680527 -6.830437 -116.528673 -68.750960 162.585107 8.508469 11.873354 -19.582501 -9.836761 0.056751 -2.930472 -11.438635 -16.935100 12.428408 55.970676 -58.308289 -102.104531 3.382543 -14.442999 18.160990 -6.479386 -24.118009 -10.929477 -10.670133 78.631593 -12.014635 10.101235 -15.111251 3.788071 0.001146 -0.004063 0.000508 4.483468 4.920601 -1.825823 129.002279 65.034831 147.346181 10.750937 9.443617 3.180306 0.002125 -0.009025 0.000941
-13.362212 126.911132 32.809890 -160.658927 -48.879449 -2.801285 -4.369570 25.717131 -1.819398 -0.648285 4.255951 -0.157327 -1.039740 6.775382 -0.273774 -3.481228 21.164408 -1.321265 -5.690280 13.212816 -7.692160 -4.461293 -11.644237 -7.071435 1.911891 4.252068 1.517969 5.685774 -11.681161 -6.828456 -116.532881 -68.758317 162.551239 8.567196 11.810718 -19.650851 -9.843438 0.036796 -2.944468 -11.456558 -16.922960 12.439617 55.926920 -58.286078 -102.105343 3.289194 -14.604346 18.290373 -6.470988 -24.109626 -10.920988 -10.662033 78.631856 -12.007640 10.077934 -15.102495 3.793803 -0.002220 -0.003816 -0.000984 4.487746 4.921304 -1.822719 129.014169 65.033375 147.360566 10.796810 9.494562 3.074458 0.002050 0.005167 0.000908
-13.360698 126.911455 32.810307 -160.664612 -48.886710 -2.799357 -4.347065 25.718597 -1.818506 -0.645303 4.254599 -0.158306 -1.035174 6.773541 -0.275371 -3.467521 21.163108 -1.324684 -5.654482 13.377891 -7.566043 -4.446435 -11.470440 -6.932066 1.891618 4.258742 1.546988 5.730327 -11.688384 -6.831183 -116.537317 -68.745846 162.539155 8.594069 11.810036 -19.717997 -9.866970 0.024818 -2.940889 -11.466344 -16.913006 12.447752 55.874209 -58.273319 -102.065903 3.222566 -14.757190 18.380971 -6.462361 -24.096603 -10.902845 -10.727991 78.625540 -12.074947 10.055373 -15.099022 3.800258 -0.000605 -0.002497 -0.000268 4.491240 4.922618 -1.817322 129.024189 65.036190 147.365900 10.846590 9.543822 2.984151 -0.002685 0.017811 -0.001190
-13.361474 126.911522 32.811549 -160.661857 -48.891922 -2.789070 -4.317779 25.709170 -1.828531 -0.657880 4.261474 -0.152823 -1.031018 6.772095 -0.277363 -3.455619 21.162335 -1.329939 -5.622221 13.547979 -7.438987 -4.435920 -11.287894 -6.791018 1.884405 4.245321 1.569240 5.750056 -11.672418 -6.824446 -116.481489 -68.717496 162.510199 8.634320 11.828303 -19.812049 -9.892732 0.026865 -2.926053 -11.466154 -16.920655 12.446896 55.809625 -58.258410 -102.022973 3.154139 -14.904653 18.479147 -6.458480 -24.090258 -10.909018 -10.744299 78.625196 -12.093393 10.039624 -15.095007 3.802751 -0.000928 -0.002262 -0.000411 4.488180 4.927935 -1.827456 129.024719 65.038205 147.361676 10.832742 9.518887 3.050922 -0.000835 0.008759 -0.000370
-13.360928 126.910667 32.813214 -160.656201 -48.889220 -2.787790 -4.306537 25.697913 -1.834953 -0.654914 4.261213 -0.151760 -1.010092 6.757288 -0.288330 -3.423705 21.152547 -1.340548 -5.616960 13.747673 -7.285720 -4.429363 -11.098088 -6.649206 1.851185 4.256642 1.616398 5.742421 -11.652532 -6.811464 -116.439596 -68.710762 162.489417 8.655176 11.828478 -19.874597 -9.946658 0.058526 -2.887353 -11.460137 -16.929370 12.446081 55.738817 -58.243169 -101.982278 3.088539 -15.040155 18.582457 -6.461850 -24.093336 -10.910872 -10.716557 78.627178 -12.073176 10.053308 -15.084665 3.805427 0.000546 -0.001303 0.000242 4.483765 4.927075 -1.832146 129.028686 65.036815 147.358929 10.804672 9.466735 3.164540 -0.000719 -0.004483 -0.000319
